<?xml version="1.0" standalone="no"?><!DOCTYPE svg PUBLIC "-//W3C//DTD SVG 1.1//EN" "http://www.w3.org/Graphics/SVG/1.1/DTD/svg11.dtd"><svg t="1751247110029" class="icon" viewBox="0 0 1024 1024" version="1.1" xmlns="http://www.w3.org/2000/svg" p-id="6345" xmlns:xlink="http://www.w3.org/1999/xlink" width="200" height="200"><path d="M62 87h900v900H62V87z m196.987 255h503.717v-82.5H258.987V342z m0 211.25h503.717v-82.5H258.987v82.5z m1.696 237.5h326.483v-82.5H260.683v82.5z" fill="#1AA5FF" p-id="6346"></path><path d="M212 21m43 0l0 0q43 0 43 43l0 109q0 43-43 43l0 0q-43 0-43-43l0-109q0-43 43-43Z" fill="#1AA5FF" p-id="6347"></path><path d="M469 21m43 0l0 0q43 0 43 43l0 109q0 43-43 43l0 0q-43 0-43-43l0-109q0-43 43-43Z" fill="#1AA5FF" p-id="6348"></path><path d="M726 21m43 0l0 0q43 0 43 43l0 109q0 43-43 43l0 0q-43 0-43-43l0-109q0-43 43-43Z" fill="#1AA5FF" p-id="6349"></path></svg>